HIERARCHY
ROOT hip
{
  OFFSET 0 90.174 2.4664
  CHANNELS 6 Xposition Yposition Zposition Zrotation Xrotation Yrotation
  JOINT abdomen
  {
    OFFSET 0 -1.186 -1.5018
    CHANNELS 6 Xposition Yposition Zposition Zrotation Xrotation Yrotation
    JOINT abdomen2
    {
      OFFSET 0 9.964 0.2134
      CHANNELS 6 Xposition Yposition Zposition Zrotation Xrotation Yrotation
      JOINT chest
      {
        OFFSET 0 13.134 -3.2573
        CHANNELS 6 Xposition Yposition Zposition Zrotation Xrotation Yrotation
        JOINT neck
        {
          OFFSET 0 20.686 -1.6905
          CHANNELS 6 Xposition Yposition Zposition Zrotation Xrotation Yrotation
          JOINT head
          {
            OFFSET 0 7.238 -0.1237
            CHANNELS 6 Xposition Yposition Zposition Zrotation Xrotation Yrotation
            End Site
            {
              OFFSET 0 0 0
            }
          }
        }
        JOINT lCollar
        {
          OFFSET 1.7069 20.075 5.0056
          CHANNELS 6 Xposition Yposition Zposition Zrotation Xrotation Yrotation
          JOINT lShldr
          {
            OFFSET 13.6458 -0.047 -4.849
            CHANNELS 6 Xposition Yposition Zposition Zrotation Xrotation Yrotation
            JOINT lForeArm
            {
              OFFSET 28.3255 -0.9759 2.2888
              CHANNELS 6 Xposition Yposition Zposition Zrotation Xrotation Yrotation
              JOINT lHand
              {
                OFFSET 22.1583 -0.53 10.8316
                CHANNELS 6 Xposition Yposition Zposition Zrotation Xrotation Yrotation
                JOINT lThumb1
                {
                  OFFSET 0.786 0.112 2.5817
                  CHANNELS 6 Xposition Yposition Zposition Zrotation Xrotation Yrotation
                  JOINT lThumb2
                  {
                    OFFSET 0.3601 -0.878 4.2331
                    CHANNELS 6 Xposition Yposition Zposition Zrotation Xrotation Yrotation
                    JOINT lThumb2_End
                    {
                      OFFSET 1.8127 -1.216 2.2227
                      CHANNELS 6 Xposition Yposition Zposition Zrotation Xrotation Yrotation
                      End Site
                      {
                        OFFSET 0.0181 -0.0122 0.0222
                      }
                    }
                  }
                }
                JOINT lCarpal1
                {
                  OFFSET 0.9571 1.114 1.7695
                  CHANNELS 6 Xposition Yposition Zposition Zrotation Xrotation Yrotation
                  JOINT lIndex1
                  {
                    OFFSET 4.1246 0.487 4.1451
                    CHANNELS 6 Xposition Yposition Zposition Zrotation Xrotation Yrotation
                    JOINT lIndex2
                    {
                      OFFSET 3.4052 -1.454 2.7682
                      CHANNELS 6 Xposition Yposition Zposition Zrotation Xrotation Yrotation
                      JOINT lIndex2_End
                      {
                        OFFSET 1.4531 -1.795 1.2713
                        CHANNELS 6 Xposition Yposition Zposition Zrotation Xrotation Yrotation
                        End Site
                        {
                          OFFSET 0.0145 -0.0179 0.0127
                        }
                      }
                    }
                  }
                  JOINT lMid1
                  {
                    OFFSET 5.6954 0.21 2.1184
                    CHANNELS 6 Xposition Yposition Zposition Zrotation Xrotation Yrotation
                    JOINT lMid2
                    {
                      OFFSET 3.9766 -1.54 2.3863
                      CHANNELS 6 Xposition Yposition Zposition Zrotation Xrotation Yrotation
                      JOINT lMid2_End
                      {
                        OFFSET 1.4042 -1.926 1.125
                        CHANNELS 6 Xposition Yposition Zposition Zrotation Xrotation Yrotation
                        End Site
                        {
                          OFFSET 0.014 -0.0193 0.0113
                        }
                      }
                    }
                  }
                }
                JOINT lCarpal2
                {
                  OFFSET 2.0956 0.66 -0.3894
                  CHANNELS 6 Xposition Yposition Zposition Zrotation Xrotation Yrotation
                  JOINT lRing1
                  {
                    OFFSET 5.0395 -0.09 2.4971
                    CHANNELS 6 Xposition Yposition Zposition Zrotation Xrotation Yrotation
                    JOINT lRing2
                    {
                      OFFSET 3.7921 -1.552 1.4806
                      CHANNELS 6 Xposition Yposition Zposition Zrotation Xrotation Yrotation
                      JOINT lRing2_End
                      {
                        OFFSET 1.4655 -1.808 0.9609
                        CHANNELS 6 Xposition Yposition Zposition Zrotation Xrotation Yrotation
                        End Site
                        {
                          OFFSET 0.0147 -0.0181 0.0096
                        }
                      }
                    }
                  }
                  JOINT lPinky1
                  {
                    OFFSET 4.9141 -1.269 0.3591
                    CHANNELS 6 Xposition Yposition Zposition Zrotation Xrotation Yrotation
                    JOINT lPinky2
                    {
                      OFFSET 3.1477 -1.685 0.8462
                      CHANNELS 6 Xposition Yposition Zposition Zrotation Xrotation Yrotation
                      JOINT lPinky2_End
                      {
                        OFFSET 0.8055 -1.585 0.7955
                        CHANNELS 6 Xposition Yposition Zposition Zrotation Xrotation Yrotation
                        End Site
                        {
                          OFFSET 0.0081 -0.0158 0.008
                        }
                      }
                    }
                  }
                }
              }
            }
          }
        }
        JOINT rCollar
        {
          OFFSET -1.7069 20.075 5.0056
          CHANNELS 6 Xposition Yposition Zposition Zrotation Xrotation Yrotation
          JOINT rShldr
          {
            OFFSET -13.6458 -0.047 -4.849
            CHANNELS 6 Xposition Yposition Zposition Zrotation Xrotation Yrotation
            JOINT rForeArm
            {
              OFFSET -28.3255 -0.9759 2.2888
              CHANNELS 6 Xposition Yposition Zposition Zrotation Xrotation Yrotation
              JOINT rHand
              {
                OFFSET -22.1583 -0.53 10.8316
                CHANNELS 6 Xposition Yposition Zposition Zrotation Xrotation Yrotation
                JOINT rThumb1
                {
                  OFFSET -0.786 0.112 2.5817
                  CHANNELS 6 Xposition Yposition Zposition Zrotation Xrotation Yrotation
                  JOINT rThumb2
                  {
                    OFFSET -0.3601 -0.878 4.2331
                    CHANNELS 6 Xposition Yposition Zposition Zrotation Xrotation Yrotation
                    JOINT rThumb2_End
                    {
                      OFFSET -1.8127 -1.216 2.2227
                      CHANNELS 6 Xposition Yposition Zposition Zrotation Xrotation Yrotation
                      End Site
                      {
                        OFFSET -0.0181 -0.0122 0.0222
                      }
                    }
                  }
                }
                JOINT rCarpal1
                {
                  OFFSET -0.9571 1.114 1.7695
                  CHANNELS 6 Xposition Yposition Zposition Zrotation Xrotation Yrotation
                  JOINT rIndex1
                  {
                    OFFSET -4.1246 0.487 4.1451
                    CHANNELS 6 Xposition Yposition Zposition Zrotation Xrotation Yrotation
                    JOINT rIndex2
                    {
                      OFFSET -3.4052 -1.454 2.7682
                      CHANNELS 6 Xposition Yposition Zposition Zrotation Xrotation Yrotation
                      JOINT rIndex2_End
                      {
                        OFFSET -1.4531 -1.795 1.2713
                        CHANNELS 6 Xposition Yposition Zposition Zrotation Xrotation Yrotation
                        End Site
                        {
                          OFFSET -0.0145 -0.018 0.0127
                        }
                      }
                    }
                  }
                  JOINT rMid1
                  {
                    OFFSET -5.6954 0.21 2.1184
                    CHANNELS 6 Xposition Yposition Zposition Zrotation Xrotation Yrotation
                    JOINT rMid2
                    {
                      OFFSET -3.9766 -1.54 2.3863
                      CHANNELS 6 Xposition Yposition Zposition Zrotation Xrotation Yrotation
                      JOINT rMid2_End
                      {
                        OFFSET -1.4042 -1.926 1.125
                        CHANNELS 6 Xposition Yposition Zposition Zrotation Xrotation Yrotation
                        End Site
                        {
                          OFFSET -0.014 -0.0193 0.0113
                        }
                      }
                    }
                  }
                }
                JOINT rCarpal2
                {
                  OFFSET -2.0956 0.66 -0.3894
                  CHANNELS 6 Xposition Yposition Zposition Zrotation Xrotation Yrotation
                  JOINT rRing1
                  {
                    OFFSET -5.0395 -0.09 2.4971
                    CHANNELS 6 Xposition Yposition Zposition Zrotation Xrotation Yrotation
                    JOINT rRing2
                    {
                      OFFSET -3.7921 -1.552 1.4806
                      CHANNELS 6 Xposition Yposition Zposition Zrotation Xrotation Yrotation
                      JOINT rRing2_End
                      {
                        OFFSET -1.4655 -1.808 0.9609
                        CHANNELS 6 Xposition Yposition Zposition Zrotation Xrotation Yrotation
                        End Site
                        {
                          OFFSET -0.0147 -0.0181 0.0096
                        }
                      }
                    }
                  }
                  JOINT rPinky1
                  {
                    OFFSET -4.9141 -1.269 0.3592
                    CHANNELS 6 Xposition Yposition Zposition Zrotation Xrotation Yrotation
                    JOINT rPinky2
                    {
                      OFFSET -3.1477 -1.685 0.8462
                      CHANNELS 6 Xposition Yposition Zposition Zrotation Xrotation Yrotation
                      JOINT rPinky2_End
                      {
                        OFFSET -0.8055 -1.585 0.7955
                        CHANNELS 6 Xposition Yposition Zposition Zrotation Xrotation Yrotation
                        End Site
                        {
                          OFFSET -0.0081 -0.0158 0.008
                        }
                      }
                    }
                  }
                }
              }
            }
          }
        }
      }
    }
  }
  JOINT lThigh
  {
    OFFSET 8.367 -8.2066 0.5982
    CHANNELS 6 Xposition Yposition Zposition Zrotation Xrotation Yrotation
    JOINT lShin
    {
      OFFSET 2.1923 -43.463 -0.4932
      CHANNELS 6 Xposition Yposition Zposition Zrotation Xrotation Yrotation
      JOINT lFoot
      {
        OFFSET 0.7333 -45.8593 -2.6451
        CHANNELS 6 Xposition Yposition Zposition Zrotation Xrotation Yrotation
        End Site
        {
          OFFSET 2.6618 -4.2699 12.3931
        }
      }
    }
  }
  JOINT rThigh
  {
    OFFSET -8.367 -8.2066 0.5982
    CHANNELS 6 Xposition Yposition Zposition Zrotation Xrotation Yrotation
    JOINT rShin
    {
      OFFSET -2.1923 -43.463 -0.4931
      CHANNELS 6 Xposition Yposition Zposition Zrotation Xrotation Yrotation
      JOINT rFoot
      {
        OFFSET -0.7333 -45.8593 -2.6451
        CHANNELS 6 Xposition Yposition Zposition Zrotation Xrotation Yrotation
        End Site
        {
          OFFSET -2.6618 -4.2699 12.3931
        }
      }
    }
  }
}
MOTION
Frames:	4
Frame Time:	0.0333333
0 90.174 2.4664 0 0 -0 0 -1.186 -1.5018 0 0 -0 0 9.964 0.2134 0 0 -0 0 13.134 -3.2573 0 0 -0 0 20.686 -1.6905 0 0 -0 0 7.238 -0.1237 0 0 -0 1.7069 20.075 5.0056 0 0 -0 13.6458 -0.047 -4.849 1.66051 0.0835086 5.75766 28.3255 -0.9759 2.2888 -0.0175111 0.895433 15.7816 22.1583 -0.53 10.8316 7.95139e-016 -1.98785e-016 -0 0.786 0.112 2.5817 5.46658e-016 -3.97569e-016 -0 0.3601 -0.878 4.2331 5.96354e-016 0 -0 1.8127 -1.216 2.2227 3.97569e-016 1.98785e-016 9.54166e-015 0.9571 1.114 1.7695 1.49089e-016 -3.97569e-016 -0 4.1246 0.487 4.1451 6.4605e-016 0 3.18055e-015 3.4052 -1.454 2.7682 5.96354e-016 0 3.18055e-015 1.4531 -1.795 1.2713 8.94531e-016 -1.98785e-016 6.36111e-015 5.6954 0.21 2.1184 6.4605e-016 0 3.18055e-015 3.9766 -1.54 2.3863 5.96354e-016 0 3.18055e-015 1.4042 -1.926 1.125 8.94531e-016 -1.98785e-016 6.36111e-015 2.0956 0.66 -0.3894 1.49089e-016 -3.97569e-016 -0 5.0395 -0.09 2.4971 6.4605e-016 0 3.18055e-015 3.7921 -1.552 1.4806 5.96354e-016 0 3.18055e-015 1.4655 -1.808 0.9609 8.94531e-016 -1.98785e-016 6.36111e-015 4.9141 -1.269 0.3591 6.4605e-016 0 3.18055e-015 3.1477 -1.685 0.8462 5.96354e-016 0 3.18055e-015 0.8055 -1.585 0.7955 8.94531e-016 -1.98785e-016 6.36111e-015 -1.7069 20.075 5.0056 0 0 -0 -13.6458 -0.047 -4.849 -1.4496 0.0636048 -5.0245 -28.3255 -0.9759 2.2888 -1.74811 1.20616 -16.8394 -22.1583 -0.53 10.8316 -1.19271e-015 1.98785e-016 -3.18055e-015 -0.786 0.112 2.5817 -3.97569e-016 1.98785e-016 -3.18055e-015 -0.3601 -0.878 4.2331 -2.98177e-016 1.98785e-016 -3.18055e-015 -1.8127 -1.216 2.2227 -2.98177e-016 3.97569e-016 -0 -0.9571 1.114 1.7695 4.96962e-016 0 -6.36111e-015 -4.1246 0.487 4.1451 -9.93923e-017 3.97569e-016 -0 -3.4052 -1.454 2.7682 -8.94531e-016 5.96354e-016 -0 -1.4531 -1.795 1.2713 -3.97569e-016 3.97569e-016 -0 -5.6954 0.21 2.1184 -9.93923e-017 3.97569e-016 -0 -3.9766 -1.54 2.3863 -8.94531e-016 5.96354e-016 -0 -1.4042 -1.926 1.125 -3.97569e-016 3.97569e-016 -0 -2.0956 0.66 -0.3894 4.96962e-016 0 -6.36111e-015 -5.0395 -0.09 2.4971 -9.93923e-017 3.97569e-016 -0 -3.7921 -1.552 1.4806 -8.94531e-016 5.96354e-016 -0 -1.4655 -1.808 0.9609 -3.97569e-016 3.97569e-016 -0 -4.9141 -1.269 0.3592 -9.93923e-017 3.97569e-016 -0 -3.1477 -1.685 0.8462 -8.94531e-016 5.96354e-016 -0 -0.8055 -1.585 0.7955 -3.97569e-016 3.97569e-016 -0 8.367 -8.2066 0.5982 -4.66115 -1.03232 0.120763 2.1923 -43.463 -0.4932 0.00990601 1.55097 0.177175 0.7333 -45.8593 -2.6451 4.65196 -0.54114 -0.255042 -8.367 -8.2066 0.5982 4.66115 -1.03222 -0.120763 -2.1923 -43.463 -0.4931 -0.00990459 1.5509 -0.177176 -0.7333 -45.8593 -2.6451 -4.65196 -0.541171 0.255041 
-7.44377 32.597 11.1602 66.6109 -0.0660197 132.51 0 -1.186 -1.5018 0.293867 3.39128 -0.284192 -3.55271e-015 9.964 0.2134 0.606232 6.78106 -0.587405 0 13.134 -3.2573 0.606222 6.78105 -0.587394 3.55271e-015 20.686 -1.6905 -0.0507818 -7.56689 0.00452449 -3.55271e-015 7.238 -0.1237 -2.95828e-006 1.40091 2.67004e-006 1.7069 20.075 5.0056 -5.87584 -18.5245 -0.32207 13.6458 -0.047 -4.849 -46.0742 18.7833 -24.8552 28.3255 -0.9759 2.2888 -27.8852 5.13221 8.66973 22.1583 -0.53 10.8316 -23.3877 17.7676 -8.00042 0.786 0.112 2.5817 0 0 -5.96354e-016 0.3601 -0.878 4.2331 1.13696e-006 -2.79879e-007 1.24276e-006 1.8127 -1.216 2.2227 -1.05798e-007 -2.95262e-007 2.37973e-006 0.9571 1.114 1.7695 0 0 -3.77691e-015 4.1246 0.487 4.1451 1.59028e-015 -1.59028e-015 7.7526e-015 3.4052 -1.454 2.7682 1.13696e-006 -2.79879e-007 1.24276e-006 1.4531 -1.795 1.2713 -1.05798e-007 -2.95262e-007 2.37973e-006 5.6954 0.21 2.1184 1.59028e-015 -1.59028e-015 7.7526e-015 3.9766 -1.54 2.3863 1.13696e-006 -2.79879e-007 1.24276e-006 1.4042 -1.926 1.125 -1.05798e-007 -2.95262e-007 2.37973e-006 2.0956 0.66 -0.3894 0 0 -3.77691e-015 5.0395 -0.09 2.4971 1.59028e-015 -1.59028e-015 7.7526e-015 3.7921 -1.552 1.4806 1.13696e-006 -2.79879e-007 1.24276e-006 1.4655 -1.808 0.9609 -1.05798e-007 -2.95262e-007 2.37973e-006 4.9141 -1.269 0.3591 1.59028e-015 -1.59028e-015 7.7526e-015 3.1477 -1.685 0.8462 1.13696e-006 -2.79879e-007 1.24276e-006 0.8055 -1.585 0.7955 -1.05798e-007 -2.95262e-007 2.37973e-006 -1.7069 20.075 5.0056 -8.25899 -19.3081 4.01831 -13.6458 -0.047 -4.849 37.9255 3.58456 35.2598 -28.3255 -0.9759 2.2888 37.1051 -6.83348 33.7056 -22.1583 -0.53 10.8316 25.8955 8.77017 5.09098 -0.786 0.112 2.5817 -4.26026e-007 5.28742e-007 -3.12126e-006 -0.3601 -0.878 4.2331 1.92662e-007 3.78854e-007 -3.8668e-008 -1.8127 -1.216 2.2227 2.35352e-007 -4.60095e-008 -3.12066e-006 -0.9571 1.114 1.7695 1.59028e-015 9.93923e-016 -0 -4.1246 0.487 4.1451 -4.26026e-007 5.28742e-007 -3.12126e-006 -3.4052 -1.454 2.7682 1.92662e-007 3.78854e-007 -3.8668e-008 -1.4531 -1.795 1.2713 2.35352e-007 -4.60095e-008 -3.12066e-006 -5.6954 0.21 2.1184 -4.26026e-007 5.28742e-007 -3.12126e-006 -3.9766 -1.54 2.3863 1.92662e-007 3.78854e-007 -3.8668e-008 -1.4042 -1.926 1.125 2.35352e-007 -4.60095e-008 -3.12066e-006 -2.0956 0.66 -0.3894 1.59028e-015 9.93923e-016 -0 -5.0395 -0.09 2.4971 -4.26026e-007 5.28742e-007 -3.12126e-006 -3.7921 -1.552 1.4806 1.92662e-007 3.78854e-007 -3.8668e-008 -1.4655 -1.808 0.9609 2.35352e-007 -4.60095e-008 -3.12066e-006 -4.9141 -1.269 0.3592 -4.26026e-007 5.28742e-007 -3.12126e-006 -3.1477 -1.685 0.8462 1.92662e-007 3.78854e-007 -3.8668e-008 -0.8055 -1.585 0.7955 2.35352e-007 -4.60095e-008 -3.12066e-006 8.367 -8.2066 0.5982 2.97064 -7.11162 7.30994 2.1923 -43.463 -0.4932 -0.994151 42.0319 0.514496 0.7333 -45.8593 -2.6451 4.97664 31.6132 -0.702533 -8.367 -8.2066 0.5982 -13.2316 -30.5461 -12.6944 -2.1923 -43.463 -0.4931 54.4281 42.428 -75.7317 -0.7333 -45.8593 -2.6451 0.316383 18.8005 -0.447572 
-9.50593 2.05612 15.2304 96.6586 -0.148901 -167.902 -4.44089e-016 -1.186 -1.5018 0.452417 4.80509 -0.452529 0 9.964 0.2134 0.948082 9.60629 -0.9483 0 13.134 -3.2573 0.948093 9.60628 -0.948305 2.22045e-016 20.686 -1.6905 0.175485 -10.191 -0.0153238 -6.66134e-016 7.238 -0.1237 -1.58326e-006 2.42534 1.01786e-006 1.7069 20.075 5.0056 -8.74771 -26.4071 -0.893242 13.6458 -0.047 -4.849 -61.14 22.5154 -40.0626 28.3255 -0.9759 2.2888 -39.3722 7.35179 4.34008 22.1583 -0.53 10.8316 -34.3682 24.9541 -10.4369 0.786 0.112 2.5817 -2.57968e-006 7.93468e-007 3.9587e-006 0.3601 -0.878 4.2331 -2.57968e-006 7.93468e-007 3.95869e-006 1.8127 -1.216 2.2227 -5.51738e-032 3.18055e-015 9.93923e-016 0.9571 1.114 1.7695 4.17448e-015 0 1.19271e-015 4.1246 0.487 4.1451 -2.57968e-006 7.93468e-007 3.9587e-006 3.4052 -1.454 2.7682 -2.57968e-006 7.93468e-007 3.95869e-006 1.4531 -1.795 1.2713 7.95139e-016 -3.18055e-015 -9.93923e-017 5.6954 0.21 2.1184 -2.57968e-006 7.93468e-007 3.9587e-006 3.9766 -1.54 2.3863 -2.57968e-006 7.93468e-007 3.95869e-006 1.4042 -1.926 1.125 7.95139e-016 -3.18055e-015 -9.93923e-017 2.0956 0.66 -0.3894 4.17448e-015 0 1.19271e-015 5.0395 -0.09 2.4971 -2.57968e-006 7.93468e-007 3.9587e-006 3.7921 -1.552 1.4806 -2.57968e-006 7.93468e-007 3.95869e-006 1.4655 -1.808 0.9609 7.95139e-016 -3.18055e-015 -9.93923e-017 4.9141 -1.269 0.3591 -2.57968e-006 7.93468e-007 3.9587e-006 3.1477 -1.685 0.8462 -2.57968e-006 7.93468e-007 3.95869e-006 0.8055 -1.585 0.7955 7.95139e-016 -3.18055e-015 -9.93923e-017 -1.7069 20.075 5.0056 -11.2161 -27.5773 5.57148 -13.6458 -0.047 -4.849 54.1677 3.4016 53.3598 -28.3255 -0.9759 2.2888 58.3262 -3.3154 55.7618 -22.1583 -0.53 10.8316 38.2521 12.1095 5.89082 -0.786 0.112 2.5817 3.31043e-032 4.77083e-015 -3.97569e-016 -0.3601 -0.878 4.2331 -1.59028e-015 3.18055e-015 -1.19271e-015 -1.8127 -1.216 2.2227 -3.18055e-015 1.59028e-015 3.97569e-016 -0.9571 1.114 1.7695 1.59028e-015 1.59028e-015 -0 -4.1246 0.487 4.1451 -6.62086e-031 3.18055e-015 1.19271e-014 -3.4052 -1.454 2.7682 -1.59028e-015 4.77083e-015 -0 -1.4531 -1.795 1.2713 -3.18055e-015 3.18055e-015 -7.95139e-016 -5.6954 0.21 2.1184 -6.62086e-031 3.18055e-015 1.19271e-014 -3.9766 -1.54 2.3863 -1.59028e-015 4.77083e-015 -0 -1.4042 -1.926 1.125 -3.18055e-015 3.18055e-015 -7.95139e-016 -2.0956 0.66 -0.3894 1.59028e-015 1.59028e-015 -0 -5.0395 -0.09 2.4971 -6.62086e-031 3.18055e-015 1.19271e-014 -3.7921 -1.552 1.4806 -1.59028e-015 4.77083e-015 -0 -1.4655 -1.808 0.9609 -3.18055e-015 3.18055e-015 -7.95139e-016 -4.9141 -1.269 0.3592 -6.62086e-031 3.18055e-015 1.19271e-014 -3.1477 -1.685 0.8462 -1.59028e-015 4.77083e-015 -0 -0.8055 -1.585 0.7955 -3.18055e-015 3.18055e-015 -7.95139e-016 8.367 -8.2066 0.5982 7.6254 -12.0671 10.2299 2.1923 -43.463 -0.4932 0.378351 61.9009 -2.67376 0.7333 -45.8593 -2.6451 3.06619 46.9669 1.31494 -8.367 -8.2066 0.5982 -29.7798 -41.1649 -21.7386 -2.1923 -43.463 -0.4931 89.6511 22.9787 -96.4946 -0.7333 -45.8593 -2.6451 5.21566 29.5277 -2.2982 
-9.54649 8.91996 13.7014 89.8189 -0.165244 178.755 0 -1.186 -1.5018 0.418287 4.25401 -0.407965 0 9.964 0.2134 0.870653 8.5048 -0.850695 -1.77636e-015 13.134 -3.2573 0.870656 8.5048 -0.850693 0 20.686 -1.6905 0.681828 -7.87159 -0.0618699 1.77636e-015 7.238 -0.1237 4.24969e-006 3.07339 -2.79553e-006 1.7069 20.075 5.0056 -8.38308 -23.6466 -1.62036 13.6458 -0.047 -4.849 -57.9672 21.4711 -35.7223 28.3255 -0.9759 2.2888 -34.6018 7.98551 1.88809 22.1583 -0.53 10.8316 -33.2159 23.3952 -9.32505 0.786 0.112 2.5817 -1.59028e-015 -3.18055e-015 -3.97569e-015 0.3601 -0.878 4.2331 0 0 -7.95139e-016 1.8127 -1.216 2.2227 -3.18055e-015 3.18055e-015 -4.77083e-015 0.9571 1.114 1.7695 -1.59028e-015 -3.18055e-015 -3.97569e-015 4.1246 0.487 4.1451 6.36111e-015 -3.18055e-015 1.03368e-014 3.4052 -1.454 2.7682 0 0 -3.97569e-015 1.4531 -1.795 1.2713 -0 0 4.77083e-015 5.6954 0.21 2.1184 6.36111e-015 -3.18055e-015 1.03368e-014 3.9766 -1.54 2.3863 0 0 -3.97569e-015 1.4042 -1.926 1.125 -0 0 4.77083e-015 2.0956 0.66 -0.3894 -1.59028e-015 -3.18055e-015 -3.97569e-015 5.0395 -0.09 2.4971 6.36111e-015 -3.18055e-015 1.03368e-014 3.7921 -1.552 1.4806 0 0 -3.97569e-015 1.4655 -1.808 0.9609 -0 0 4.77083e-015 4.9141 -1.269 0.3591 6.36111e-015 -3.18055e-015 1.03368e-014 3.1477 -1.685 0.8462 0 0 -3.97569e-015 0.8055 -1.585 0.7955 -0 0 4.77083e-015 -1.7069 20.075 5.0056 -11.0391 -24.9623 3.78786 -13.6458 -0.047 -4.849 50.7687 3.91645 49.2716 -28.3255 -0.9759 2.2888 53.8046 -4.03199 51.129 -22.1583 -0.53 10.8316 36.1859 11.0083 5.82028 -0.786 0.112 2.5817 4.79441e-006 8.90354e-006 -5.71675e-007 -0.3601 -0.878 4.2331 3.31043e-032 -3.18055e-015 5.96354e-016 -1.8127 -1.216 2.2227 1.59028e-015 -1.59028e-015 -0 -0.9571 1.114 1.7695 1.59028e-015 -1.59028e-015 -5.96354e-016 -4.1246 0.487 4.1451 4.79441e-006 8.90354e-006 -5.71675e-007 -3.4052 -1.454 2.7682 1.59028e-015 -1.59028e-015 -5.96354e-016 -1.4531 -1.795 1.2713 1.59028e-015 -1.59028e-015 -1.59028e-015 -5.6954 0.21 2.1184 4.79441e-006 8.90354e-006 -5.71675e-007 -3.9766 -1.54 2.3863 1.59028e-015 -1.59028e-015 -5.96354e-016 -1.4042 -1.926 1.125 1.59028e-015 -1.59028e-015 -1.59028e-015 -2.0956 0.66 -0.3894 1.59028e-015 -1.59028e-015 -5.96354e-016 -5.0395 -0.09 2.4971 4.79441e-006 8.90354e-006 -5.71675e-007 -3.7921 -1.552 1.4806 1.59028e-015 -1.59028e-015 -5.96354e-016 -1.4655 -1.808 0.9609 1.59028e-015 -1.59028e-015 -1.59028e-015 -4.9141 -1.269 0.3592 4.79441e-006 8.90354e-006 -5.71675e-007 -3.1477 -1.685 0.8462 1.59028e-015 -1.59028e-015 -5.96354e-016 -0.8055 -1.585 0.7955 1.59028e-015 -1.59028e-015 -1.59028e-015 8.367 -8.2066 0.5982 6.84399 -10.0923 9.39054 2.1923 -43.463 -0.4932 -0.201074 56.5292 -1.05821 0.7333 -45.8593 -2.6451 4.02207 43.6481 -0.387363 -8.367 -8.2066 0.5982 -25.5629 -39.0513 -19.4358 -2.1923 -43.463 -0.4931 83.0445 28.2308 -94.844 -0.7333 -45.8593 -2.6451 3.97443 27.0971 -1.60705 
